<?xml version="1.0" encoding="UTF-8" standalone="no"?>
<!DOCTYPE svg PUBLIC "-//W3C//DTD SVG 1.1//EN" "http://www.w3.org/Graphics/SVG/1.1/DTD/svg11.dtd">
<svg width="100%" height="100%" viewBox="0 0 1820 259" version="1.1" xmlns="http://www.w3.org/2000/svg" xmlns:xlink="http://www.w3.org/1999/xlink" xml:space="preserve" xmlns:serif="http://www.serif.com/" style="fill-rule:evenodd;clip-rule:evenodd;stroke-linejoin:round;stroke-miterlimit:2;">
    <g transform="matrix(1,0,0,1,-980.101,-950.715)">
        <g>
            <g transform="matrix(1,0,0,1,421.188,316.41)">
                <path d="M838.119,886.893L875.375,886.893L875.375,707.962L894.857,707.962L868.539,694.461L1004.75,886.893L1039.44,886.893L1039.44,640.286L1002.01,640.286L1002.01,819.388L982.699,819.388L1008.85,832.889L872.811,640.286L838.119,640.286L838.119,886.893Z" style="fill:rgb(217,118,5);fill-rule:nonzero;"/>
            </g>
            <g transform="matrix(1,0,0,1,421.188,316.41)">
                <path d="M1063.88,886.893L1104.21,886.893L1172.23,683.524L1183.85,683.524L1183.85,640.286L1152.91,640.286L1063.88,886.893ZM1106.77,820.242L1240.59,820.242L1229.82,789.481L1117.54,789.481L1106.77,820.242ZM1242.98,886.893L1283.31,886.893L1194.44,640.286L1175.13,640.286L1175.13,683.524L1242.98,886.893Z" style="fill:rgb(217,118,5);fill-rule:nonzero;"/>
            </g>
            <g transform="matrix(1,0,0,1,421.188,316.41)">
                <path d="M1324.33,802.64L1401.23,802.64C1417.41,802.64 1431.62,799.25 1443.87,792.471C1456.12,785.692 1465.71,776.179 1472.66,763.931C1479.62,751.684 1483.09,737.528 1483.09,721.463L1483.09,721.121C1483.09,705.057 1479.62,690.958 1472.66,678.824C1465.71,666.69 1456.12,657.234 1443.87,650.455C1431.62,643.676 1417.41,640.286 1401.23,640.286L1324.33,640.286L1324.33,672.586L1391.66,672.586C1408.29,672.586 1421.2,676.859 1430.37,685.404C1439.54,693.948 1444.12,705.968 1444.12,721.463L1444.12,721.805C1444.12,737.072 1439.54,749.006 1430.37,757.608C1421.2,766.21 1408.29,770.511 1391.66,770.511L1324.33,770.511L1324.33,802.64ZM1305.18,886.893L1343.46,886.893L1343.46,640.286L1305.18,640.286L1305.18,886.893Z" style="fill:rgb(217,118,5);fill-rule:nonzero;"/>
            </g>
            <g transform="matrix(1,0,0,1,421.188,316.41)">
                <path d="M1715,886.893L1753.28,886.893L1753.28,777.689L1879.75,777.689L1879.75,886.893L1918.2,886.893L1918.2,640.286L1879.75,640.286L1879.75,744.534L1753.28,744.534L1753.28,640.286L1715,640.286L1715,886.893Z" style="fill:rgb(217,118,5);fill-rule:nonzero;"/>
            </g>
            <g transform="matrix(1,0,0,1,421.188,316.41)">
                <path d="M2064.83,892.874C2088.53,892.874 2109.01,887.576 2126.27,876.981C2143.53,866.385 2156.77,851.431 2166,832.12C2175.23,812.808 2179.84,789.993 2179.84,763.675L2179.84,763.333C2179.84,736.901 2175.2,714.029 2165.91,694.717C2156.63,675.406 2143.38,660.509 2126.18,650.028C2108.98,639.546 2088.53,634.305 2064.83,634.305C2041.24,634.305 2020.82,639.546 2003.56,650.028C1986.3,660.509 1973,675.377 1963.66,694.632C1954.31,713.887 1949.64,736.787 1949.64,763.333L1949.64,763.675C1949.64,789.993 1954.26,812.837 1963.49,832.205C1972.71,851.574 1985.93,866.527 2003.13,877.066C2020.34,887.605 2040.9,892.874 2064.83,892.874ZM2064.83,858.865C2048.99,858.865 2035.4,854.935 2024.07,847.073C2012.73,839.212 2004.02,828.132 1997.92,813.834C1991.83,799.535 1988.78,782.816 1988.78,763.675L1988.78,763.333C1988.78,743.965 1991.91,727.16 1998.18,712.918C2004.44,698.677 2013.25,687.682 2024.58,679.935C2035.92,672.187 2049.33,668.314 2064.83,668.314C2080.32,668.314 2093.77,672.187 2105.16,679.935C2116.55,687.682 2125.33,698.677 2131.48,712.918C2137.63,727.16 2140.71,743.965 2140.71,763.333L2140.71,763.675C2140.71,782.816 2137.63,799.535 2131.48,813.834C2125.33,828.132 2116.55,839.212 2105.16,847.073C2093.77,854.935 2080.32,858.865 2064.83,858.865Z" style="fill:rgb(217,118,5);fill-rule:nonzero;"/>
            </g>
            <g transform="matrix(1,0,0,1,421.188,316.41)">
                <path d="M2262.9,886.893L2301.18,886.893L2301.18,673.441L2378.77,673.441L2378.77,640.286L2185.31,640.286L2185.31,673.441L2262.9,673.441L2262.9,886.893Z" style="fill:rgb(217,118,5);fill-rule:nonzero;"/>
            </g>
            <g transform="matrix(0.603603,0,0,0.603603,-287.767,16.9041)">
                <path d="M2362.54,1975.44C2394.25,1975.44 2421.81,1970.25 2445.21,1959.87C2468.62,1949.48 2486.69,1934.81 2499.43,1915.84C2512.17,1896.87 2518.54,1874.36 2518.54,1848.31L2518.54,1848.03C2518.54,1817.83 2509.15,1793.67 2490.37,1775.55C2471.59,1757.43 2440.78,1743.84 2397.93,1734.78L2353.19,1724.87C2326.96,1719.2 2308.03,1711.32 2296.43,1701.23C2284.82,1691.13 2279.01,1678.53 2279.01,1663.43L2279.01,1663.14C2279.01,1650.31 2282.65,1639.36 2289.91,1630.3C2297.18,1621.24 2307.04,1614.31 2319.5,1609.49C2331.96,1604.68 2346.12,1602.27 2361.97,1602.27C2378.39,1602.08 2392.79,1604.49 2405.15,1609.49C2417.51,1614.49 2427.42,1621.34 2434.88,1630.02C2442.33,1638.7 2446.91,1648.61 2448.61,1659.75L2449.18,1663.43L2612.54,1562.07L2510.9,1659.75C2509.39,1638.42 2502.36,1619.26 2489.8,1602.27C2477.25,1585.28 2460.17,1571.84 2438.56,1561.93C2416.95,1552.02 2391.7,1547.06 2362.82,1547.06C2333.94,1547.06 2308.37,1552.06 2286.09,1562.07C2263.82,1572.07 2246.41,1586.04 2233.86,1603.97C2221.3,1621.9 2214.93,1642.66 2214.74,1666.26L2214.74,1666.54C2214.74,1696.74 2224.18,1721.52 2243.06,1740.86C2261.93,1760.21 2292.04,1774.32 2333.38,1783.19L2378.11,1792.54C2405.1,1798.39 2424.54,1806.5 2436.43,1816.88C2448.33,1827.27 2454.27,1840.29 2454.27,1855.96L2454.27,1856.24C2454.27,1868.7 2450.45,1879.74 2442.8,1889.37C2435.16,1898.99 2424.64,1906.54 2411.24,1912.02C2397.84,1917.49 2382.55,1920.23 2365.37,1920.23C2347.06,1920.23 2330.78,1917.68 2316.53,1912.58C2302.28,1907.49 2290.95,1900.41 2282.55,1891.35C2274.15,1882.29 2269.29,1871.62 2267.97,1859.36L2267.69,1856.24L2100.5,1960.86L2205.4,1859.92C2207.29,1882.76 2214.84,1902.86 2228.05,1920.23C2241.26,1937.59 2259.29,1951.14 2282.13,1960.86C2304.97,1970.58 2331.77,1975.44 2362.54,1975.44Z" style="fill:rgb(217,119,6);fill-rule:nonzero;"/>
            </g>
            <g transform="matrix(0.603603,0,0,0.603603,589.113,16.9041)">
                <path d="M2362.54,1975.44C2394.25,1975.44 2421.81,1970.25 2445.21,1959.87C2468.62,1949.48 2486.69,1934.81 2499.43,1915.84C2512.17,1896.87 2518.54,1874.36 2518.54,1848.31L2518.54,1848.03C2518.54,1817.83 2509.15,1793.67 2490.37,1775.55C2471.59,1757.43 2440.78,1743.84 2397.93,1734.78L2353.19,1724.87C2326.96,1719.2 2308.03,1711.32 2296.43,1701.23C2284.82,1691.13 2279.01,1678.53 2279.01,1663.43L2279.01,1663.14C2279.01,1650.31 2282.65,1639.36 2289.91,1630.3C2297.18,1621.24 2307.04,1614.31 2319.5,1609.49C2331.96,1604.68 2346.12,1602.27 2361.97,1602.27C2378.39,1602.08 2392.79,1604.49 2405.15,1609.49C2417.51,1614.49 2427.42,1621.34 2434.88,1630.02C2442.33,1638.7 2446.91,1648.61 2448.61,1659.75L2449.18,1663.43L2612.54,1562.07L2510.9,1659.75C2509.39,1638.42 2502.36,1619.26 2489.8,1602.27C2477.25,1585.28 2460.17,1571.84 2438.56,1561.93C2416.95,1552.02 2391.7,1547.06 2362.82,1547.06C2333.94,1547.06 2308.37,1552.06 2286.09,1562.07C2263.82,1572.07 2246.41,1586.04 2233.86,1603.97C2221.3,1621.9 2214.93,1642.66 2214.74,1666.26L2214.74,1666.54C2214.74,1696.74 2224.18,1721.52 2243.06,1740.86C2261.93,1760.21 2292.04,1774.32 2333.38,1783.19L2378.11,1792.54C2405.1,1798.39 2424.54,1806.5 2436.43,1816.88C2448.33,1827.27 2454.27,1840.29 2454.27,1855.96L2454.27,1856.24C2454.27,1868.7 2450.45,1879.74 2442.8,1889.37C2435.16,1898.99 2424.64,1906.54 2411.24,1912.02C2397.84,1917.49 2382.55,1920.23 2365.37,1920.23C2347.06,1920.23 2330.78,1917.68 2316.53,1912.58C2302.28,1907.49 2290.95,1900.41 2282.55,1891.35C2274.15,1882.29 2269.29,1871.62 2267.97,1859.36L2267.69,1856.24L2100.5,1960.86L2205.4,1859.92C2207.29,1882.76 2214.84,1902.86 2228.05,1920.23C2241.26,1937.59 2259.29,1951.14 2282.13,1960.86C2304.97,1970.58 2331.77,1975.44 2362.54,1975.44Z" style="fill:rgb(217,119,6);fill-rule:nonzero;"/>
            </g>
        </g>
    </g>
</svg>
